<?xml version="1.0" standalone="no"?>
<!DOCTYPE svg PUBLIC "-//W3C//DTD SVG 20010904//EN"
 "http://www.w3.org/TR/2001/REC-SVG-20010904/DTD/svg10.dtd">
<svg version="1.0" xmlns="http://www.w3.org/2000/svg"
 width="260.000000pt" height="260.000000pt" viewBox="0 0 260.000000 260.000000"
 preserveAspectRatio="xMidYMid meet">
<metadata>
Created by potrace 1.14, written by Peter Selinger 2001-2017
</metadata>
<g transform="translate(0.000000,260.000000) scale(0.100000,-0.100000)"
fill="#000000" stroke="none">
<path d="M425 1914 c-52 -19 -93 -59 -118 -114 -17 -37 -20 -68 -22 -175 l-1
-130 -120 -3 -121 -3 0 -69 c0 -69 0 -70 26 -71 14 0 69 -1 121 -2 l95 -2 1
-330 c1 -181 2 -333 3 -337 0 -5 30 -8 66 -8 l65 0 0 339 0 339 168 0 167 -1
3 72 3 71 -171 0 -170 0 0 119 c0 112 2 122 24 148 24 28 24 28 170 31 l146 4
0 69 0 69 -147 -1 c-103 0 -160 -5 -188 -15z"/>
<path d="M2084 1879 c-3 -5 -5 -59 -4 -121 1 -62 1 -119 1 -125 -1 -10 -32
-13 -120 -13 l-119 0 0 -57 c0 -93 -7 -88 119 -87 72 1 112 -3 115 -10 2 -6 5
-150 6 -321 3 -339 5 -349 66 -411 53 -54 93 -64 255 -64 l147 0 0 70 0 70
-82 0 c-189 1 -198 3 -224 33 -27 32 -26 7 -26 367 l-1 265 154 2 c85 0 161 1
170 2 13 1 16 14 16 71 l-1 70 -168 0 c-92 0 -168 3 -169 8 0 4 -1 63 -2 132
l-2 125 -63 1 c-34 1 -65 -2 -68 -7z"/>
<path d="M1313 1623 c-57 -19 -110 -74 -127 -131 l-15 -47 0 88 -1 88 -67 -3
-68 -3 0 -470 0 -470 68 -3 67 -3 0 323 c0 186 5 342 11 368 22 97 89 145 191
138 111 -8 155 -71 157 -224 l1 -62 68 2 67 1 -1 87 c-3 155 -52 257 -145 306
-57 29 -147 35 -206 15z"/>
</g>
</svg>
